<svg xmlns="http://www.w3.org/2000/svg" xlink="http://www.w3.org/1999/xlink" width="0" height="0" style="display:none;"><symbol viewBox="0 0 24 24" id="arrow-go-back-fill"><path fill="none" d="M0 0h24v24H0z"/><path d="M8 7v4L2 6l6-5v4h5a8 8 0 1 1 0 16H4v-2h9a6 6 0 1 0 0-12H8z"/></symbol><symbol viewBox="0 0 24 24" id="notification-badge-line"><path fill="none" d="M0 0h24v24H0z"/><path d="M13.341 4A5.99 5.99 0 0 0 13 6H5v14h14v-8a5.99 5.99 0 0 0 2-.341V21a1 1 0 0 1-1 1H4a1 1 0 0 1-1-1V5a1 1 0 0 1 1-1h9.341zM19 8a2 2 0 1 0 0-4 2 2 0 0 0 0 4zm0 2a4 4 0 1 1 0-8 4 4 0 0 1 0 8z"/></symbol><symbol viewBox="0 0 24 24" id="subtract-line"><path fill="none" d="M0 0h24v24H0z"/><path d="M5 11h14v2H5z"/></symbol><symbol viewBox="0 0 24 24" id="checkbox-multiple-blank-line"><path fill="none" d="M0 0h24v24H0z"/><path d="M7 7V3a1 1 0 0 1 1-1h13a1 1 0 0 1 1 1v13a1 1 0 0 1-1 1h-4v3.993c0 .556-.449 1.007-1.007 1.007H3.007A1.006 1.006 0 0 1 2 20.993l.003-12.986C2.003 7.451 2.452 7 3.01 7H7zm2 0h6.993C16.549 7 17 7.449 17 8.007V15h3V4H9v3zM4.003 9L4 20h11V9H4.003z"/></symbol><symbol viewBox="0 0 24 24" id="close-line"><path fill="none" d="M0 0h24v24H0z"/><path d="M12 10.586l4.95-4.95 1.414 1.414-4.95 4.95 4.95 4.95-1.414 1.414-4.95-4.95-4.95 4.95-1.414-1.414 4.95-4.95-4.95-4.95L7.05 5.636z"/></symbol><symbol viewBox="0 0 24 24" id="menu-fill"><path fill="none" d="M0 0h24v24H0z"/><path d="M3 4h18v2H3V4zm0 7h18v2H3v-2zm0 7h18v2H3v-2z"/></symbol><symbol viewBox="0 0 24 24" id="lock-line"><path fill="none" d="M0 0h24v24H0z"/><path d="M19 10h1a1 1 0 0 1 1 1v10a1 1 0 0 1-1 1H4a1 1 0 0 1-1-1V11a1 1 0 0 1 1-1h1V9a7 7 0 1 1 14 0v1zM5 12v8h14v-8H5zm6 2h2v4h-2v-4zm6-4V9A5 5 0 0 0 7 9v1h10z"/></symbol><symbol viewBox="0 0 24 24" id="lock-unlock-line"><path fill="none" d="M0 0h24v24H0z"/><path d="M7 10h13a1 1 0 0 1 1 1v10a1 1 0 0 1-1 1H4a1 1 0 0 1-1-1V11a1 1 0 0 1 1-1h1V9a7 7 0 0 1 13.262-3.131l-1.789.894A5 5 0 0 0 7 9v1zm-2 2v8h14v-8H5zm5 3h4v2h-4v-2z"/></symbol><symbol viewBox="0 0 24 24" id="arrow-down-s-fill"><path fill="none" d="M0 0h24v24H0z"/><path d="M12 16l-6-6h12z"/></symbol><symbol viewBox="0 0 24 24" id="arrow-up-line"><path fill="none" d="M0 0h24v24H0z"/><path d="M13 7.828V20h-2V7.828l-5.364 5.364-1.414-1.414L12 4l7.778 7.778-1.414 1.414L13 7.828z"/></symbol><symbol viewBox="0 0 24 24" id="search-eye-line"><path fill="none" d="M0 0h24v24H0z"/><path d="M18.031 16.617l4.283 4.282-1.415 1.415-4.282-4.283A8.96 8.96 0 0 1 11 20c-4.968 0-9-4.032-9-9s4.032-9 9-9 9 4.032 9 9a8.96 8.96 0 0 1-1.969 5.617zm-2.006-.742A6.977 6.977 0 0 0 18 11c0-3.868-3.133-7-7-7-3.868 0-7 3.132-7 7 0 3.867 3.132 7 7 7a6.977 6.977 0 0 0 4.875-1.975l.15-.15zm-3.847-8.699a2 2 0 1 0 2.646 2.646 4 4 0 1 1-2.646-2.646z"/></symbol><symbol viewBox="0 0 24 24" id="star-half-line"><path fill="none" d="M0 0h24v24H0z"/><path d="M12 15.968l4.247 2.377-.949-4.773 3.573-3.305-4.833-.573L12 5.275v10.693zm0 2.292l-7.053 3.948 1.575-7.928L.587 8.792l8.027-.952L12 .5l3.386 7.34 8.027.952-5.935 5.488 1.575 7.928L12 18.26z"/></symbol><symbol viewBox="0 0 24 24" id="star-line"><path fill="none" d="M0 0h24v24H0z"/><path d="M12 18.26l-7.053 3.948 1.575-7.928L.587 8.792l8.027-.952L12 .5l3.386 7.34 8.027.952-5.935 5.488 1.575 7.928L12 18.26zm0-2.292l4.247 2.377-.949-4.773 3.573-3.305-4.833-.573L12 5.275l-2.038 4.42-4.833.572 3.573 3.305-.949 4.773L12 15.968z"/></symbol><symbol viewBox="0 0 24 24" id="star-fill"><path fill="none" d="M0 0h24v24H0z"/><path d="M12 18.26l-7.053 3.948 1.575-7.928L.587 8.792l8.027-.952L12 .5l3.386 7.34 8.027.952-5.935 5.488 1.575 7.928z"/></symbol><symbol viewBox="0 0 24 24" id="drag-move-2-line"><path fill="none" d="M0 0h24v24H0z"/><path d="M11 11V5.828L9.172 7.657 7.757 6.243 12 2l4.243 4.243-1.415 1.414L13 5.828V11h5.172l-1.829-1.828 1.414-1.415L22 12l-4.243 4.243-1.414-1.415L18.172 13H13v5.172l1.828-1.829 1.415 1.414L12 22l-4.243-4.243 1.415-1.414L11 18.172V13H5.828l1.829 1.828-1.414 1.415L2 12l4.243-4.243 1.414 1.415L5.828 11z"/></symbol><symbol viewBox="0 0 24 24" id="eye-off-fill"><path fill="none" d="M0 0h24v24H0z"/><path d="M4.52 5.934L1.393 2.808l1.415-1.415 19.799 19.8-1.415 1.414-3.31-3.31A10.949 10.949 0 0 1 12 21c-5.392 0-9.878-3.88-10.819-9a10.982 10.982 0 0 1 3.34-6.066zm10.237 10.238l-1.464-1.464a3 3 0 0 1-4.001-4.001L7.828 9.243a5 5 0 0 0 6.929 6.929zM7.974 3.76C9.221 3.27 10.58 3 12 3c5.392 0 9.878 3.88 10.819 9a10.947 10.947 0 0 1-2.012 4.592l-3.86-3.86a5 5 0 0 0-5.68-5.68L7.974 3.761z"/></symbol><symbol viewBox="0 0 24 24" id="eye-fill"><path fill="none" d="M0 0h24v24H0z"/><path d="M1.181 12C2.121 6.88 6.608 3 12 3c5.392 0 9.878 3.88 10.819 9-.94 5.12-5.427 9-10.819 9-5.392 0-9.878-3.88-10.819-9zM12 17a5 5 0 1 0 0-10 5 5 0 0 0 0 10zm0-2a3 3 0 1 1 0-6 3 3 0 0 1 0 6z"/></symbol><symbol viewBox="0 0 24 24" id="layout-5-line"><path fill="none" d="M0 0h24v24H0z"/><path d="M3 21a1 1 0 0 1-1-1V4a1 1 0 0 1 1-1h18a1 1 0 0 1 1 1v16a1 1 0 0 1-1 1H3zm4-11H4v9h3v-9zm13 0H9v9h11v-9zm0-5H4v3h16V5z"/></symbol><symbol viewBox="0 0 24 24" id="arrow-left-circle-fill"><path fill="none" d="M0 0h24v24H0z"/><path d="M12 2c5.52 0 10 4.48 10 10s-4.48 10-10 10S2 17.52 2 12 6.48 2 12 2zm0 9V8l-4 4 4 4v-3h4v-2h-4z"/></symbol><symbol viewBox="0 0 24 24" id="arrow-right-circle-fill"><path fill="none" d="M0 0h24v24H0z"/><path d="M12 2c5.52 0 10 4.48 10 10s-4.48 10-10 10S2 17.52 2 12 6.48 2 12 2zm0 9H8v2h4v3l4-4-4-4v3z"/></symbol><symbol viewBox="0 0 24 24" id="settings-5-fill"><path fill="none" d="M0 0h24v24H0z"/><path d="M2.132 13.63a9.942 9.942 0 0 1 0-3.26c1.102.026 2.092-.502 2.477-1.431.385-.93.058-2.004-.74-2.763a9.942 9.942 0 0 1 2.306-2.307c.76.798 1.834 1.125 2.764.74.93-.385 1.457-1.376 1.43-2.477a9.942 9.942 0 0 1 3.262 0c-.027 1.102.501 2.092 1.43 2.477.93.385 2.004.058 2.763-.74a9.942 9.942 0 0 1 2.307 2.306c-.798.76-1.125 1.834-.74 2.764.385.93 1.376 1.457 2.477 1.43a9.942 9.942 0 0 1 0 3.262c-1.102-.027-2.092.501-2.477 1.43-.385.93-.058 2.004.74 2.763a9.942 9.942 0 0 1-2.306 2.307c-.76-.798-1.834-1.125-2.764-.74-.93.385-1.457 1.376-1.43 2.477a9.942 9.942 0 0 1-3.262 0c.027-1.102-.501-2.092-1.43-2.477-.93-.385-2.004-.058-2.763.74a9.942 9.942 0 0 1-2.307-2.306c.798-.76 1.125-1.834.74-2.764-.385-.93-1.376-1.457-2.477-1.43zM12 15a3 3 0 1 0 0-6 3 3 0 0 0 0 6z"/></symbol><symbol viewBox="0 0 24 24" id="arrow-right-s-line"><path fill="none" d="M0 0h24v24H0z"/><path d="M13.172 12l-4.95-4.95 1.414-1.414L16 12l-6.364 6.364-1.414-1.414z"/></symbol><symbol viewBox="0 0 24 24" id="arrow-left-s-line"><path fill="none" d="M0 0h24v24H0z"/><path d="M10.828 12l4.95 4.95-1.414 1.414L8 12l6.364-6.364 1.414 1.414z"/></symbol></svg>